<?xml version="1.0" ?><svg height="24" id="svg8" version="1.1" viewBox="0 0 24 24" width="24" xmlns="http://www.w3.org/2000/svg" xmlns:cc="http://creativecommons.org/ns#" xmlns:dc="http://purl.org/dc/elements/1.1/" xmlns:rdf="http://www.w3.org/1999/02/22-rdf-syntax-ns#" xmlns:svg="http://www.w3.org/2000/svg"><defs id="defs2"><rect height="7.0346723" id="rect2504" width="7.9207187" x="-1.1008456" y="289.81766"/></defs><g id="g2389" transform="translate(-1e-6,0.0068345)"><path d="m 91.935547,81.462891 -0.412109,0.658203 -2.527344,4.029297 h 1.535156 v 2.208984 c -3.228997,0.681549 -5.660156,3.563463 -5.660156,7.005859 0,3.947817 3.197548,7.158206 7.128906,7.158206 3.931359,0 7.128906,-3.210388 7.128906,-7.158206 0,-3.442395 -2.431158,-6.32431 -5.660156,-7.005859 v -2.208984 h 1.535156 z M 92,89.208984 c 3.392043,0 6.130859,2.750005 6.130859,6.15625 0,3.406244 -2.738816,6.156246 -6.130859,6.156246 -3.392043,0 -6.13086,-2.750002 -6.130859,-6.156246 0,-3.406245 2.738816,-6.15625 6.130859,-6.15625 z" id="path1419" style="color:#000000;font-style:normal;font-variant:normal;font-weight:normal;font-stretch:normal;font-size:medium;line-height:normal;font-family:sans-serif;font-variant-ligatures:normal;font-variant-position:normal;font-variant-caps:normal;font-variant-numeric:normal;font-variant-alternates:normal;font-variant-east-asian:normal;font-feature-settings:normal;font-variation-settings:normal;text-indent:0;text-align:start;text-decoration:none;text-decoration-line:none;text-decoration-style:solid;text-decoration-color:#000000;letter-spacing:normal;word-spacing:normal;text-transform:none;writing-mode:lr-tb;direction:ltr;text-orientation:mixed;dominant-baseline:auto;baseline-shift:baseline;text-anchor:start;white-space:normal;shape-padding:0;shape-margin:0;inline-size:0;clip-rule:nonzero;display:inline;overflow:visible;visibility:visible;isolation:auto;mix-blend-mode:normal;color-interpolation:sRGB;color-interpolation-filters:linearRGB;solid-color:#000000;solid-opacity:1;vector-effect:none;fill:#000000;fill-opacity:1;fill-rule:nonzero;stroke:none;stroke-width:1.00001;stroke-linecap:square;stroke-linejoin:miter;stroke-miterlimit:4;stroke-dasharray:none;stroke-dashoffset:0;stroke-opacity:1;paint-order:stroke fill markers;color-rendering:auto;image-rendering:auto;shape-rendering:auto;text-rendering:auto;enable-background:accumulate;stop-color:#000000" transform="translate(-79.999999,-80)"/><path d="m 92,90.361328 c -2.746125,0 -4.982422,2.246284 -4.982422,5.003906 0,2.757621 2.236297,5.003906 4.982422,5.003906 2.746125,0 4.982422,-2.246285 4.982422,-5.003906 0,-2.757622 -2.236297,-5.003906 -4.982422,-5.003906 z m -0.498047,1.710938 h 0.996094 v 0.93164 h 1.257812 v 1 h -2.513671 v 0.861328 h 2.513671 v 2.861328 h -1.257812 v 0.931641 h -0.996094 v -0.931641 h -1.257812 v -1 h 2.513671 v -0.861328 h -2.513671 v -2.861328 h 1.257812 z" id="path1435" style="color:#000000;font-style:normal;font-variant:normal;font-weight:normal;font-stretch:normal;font-size:medium;line-height:normal;font-family:sans-serif;font-variant-ligatures:normal;font-variant-position:normal;font-variant-caps:normal;font-variant-numeric:normal;font-variant-alternates:normal;font-variant-east-asian:normal;font-feature-settings:normal;font-variation-settings:normal;text-indent:0;text-align:start;text-decoration:none;text-decoration-line:none;text-decoration-style:solid;text-decoration-color:#000000;letter-spacing:normal;word-spacing:normal;text-transform:none;writing-mode:lr-tb;direction:ltr;text-orientation:mixed;dominant-baseline:auto;baseline-shift:baseline;text-anchor:start;white-space:normal;shape-padding:0;shape-margin:0;inline-size:0;clip-rule:nonzero;display:inline;overflow:visible;visibility:visible;isolation:auto;mix-blend-mode:normal;color-interpolation:sRGB;color-interpolation-filters:linearRGB;solid-color:#000000;solid-opacity:1;vector-effect:none;fill:#000000;fill-opacity:1;fill-rule:nonzero;stroke:none;stroke-width:1.00001;stroke-linecap:square;stroke-linejoin:miter;stroke-miterlimit:4;stroke-dasharray:none;stroke-dashoffset:0;stroke-opacity:1;paint-order:stroke fill markers;color-rendering:auto;image-rendering:auto;shape-rendering:auto;text-rendering:auto;enable-background:accumulate;stop-color:#000000" transform="translate(-79.999999,-80)"/></g></svg>